Coordinates
version=1
nRows=16
nColumns=22
inDegrees=yes

Units are S.I. units (second, meters, Newtons, ...)
If the header above contains a line with 'inDegrees', this indicates whether rotational values are in degrees (yes) or radians (no).

endheader
time	pelvis_tilt	pelvis_list	pelvis_rotation	pelvis_tx	pelvis_ty	pelvis_tz	hip_flexion_r	hip_adduction_r	hip_rotation_r	knee_angle_r	ankle_angle_r	subtalar_angle_r	hip_flexion_l	hip_adduction_l	hip_rotation_l	knee_angle_l	ankle_angle_l	subtalar_angle_l	lumbar_extension	lumbar_bending	lumbar_rotation
      0.01000000	      3.59031774	     -0.37530782	      1.73402768	     -0.00463691	      0.93768726	      1.26250888	      7.33004506	     -2.25702418	    -12.92704226	    -28.72121076	     15.68382855	      6.51738765	      5.88658365	     -1.48341588	     -6.05048991	    -27.98138123	     16.93641261	     -2.95559621	    -12.10029529	     -2.25379788	     -5.42810671
      0.02000000	      3.56092960	     -0.32388621	      1.72119116	     -0.00480932	      0.93768361	      1.26228295	      7.39018079	     -2.33992240	    -12.93628852	    -28.75406842	     15.65691309	      6.51721111	      5.88697994	     -1.40552170	     -6.06170860	    -27.90739408	     16.94045553	     -2.96044692	    -12.05163438	     -2.30285686	     -5.42446860
      0.03000000	      3.51138023	     -0.26747094	      1.70969897	     -0.00503516	      0.93766205	      1.26201170	      7.47678142	     -2.42865370	    -12.93028389	    -28.78787432	     15.66071896	      6.52942504	      5.91324810	     -1.32157892	     -6.08555337	    -27.83307958	     16.89066731	     -2.96984804	    -11.97834153	     -2.35551805	     -5.42530809
      0.04000000	      3.45966545	     -0.21277922	      1.70562552	     -0.00528316	      0.93764782	      1.26168590	      7.56351854	     -2.51660616	    -12.92655294	    -28.81546986	     15.65082385	      6.53925435	      5.93979181	     -1.23561863	     -6.10468593	    -27.75115387	     16.85425143	     -2.97612533	    -11.89870873	     -2.40218760	     -5.43536525
      0.05000000	      3.40509126	     -0.15405248	      1.71071084	     -0.00554606	      0.93764230	      1.26130923	      7.65073261	     -2.60877620	    -12.92068796	    -28.83778669	     15.63802173	      6.54368856	      5.96560434	     -1.14102859	     -6.11654771	    -27.65858938	     16.80745258	     -2.98358422	    -11.81513680	     -2.44908206	     -5.45670608
      0.06000000	      3.35082739	     -0.09433938	      1.72638391	     -0.00580975	      0.93764850	      1.26089831	      7.73412116	     -2.70076940	    -12.91519922	    -28.85533648	     15.62387061	      6.54008735	      5.98690558	     -1.04264196	     -6.11950317	    -27.55556206	     16.75714286	     -2.99341277	    -11.72904241	     -2.49492681	     -5.49140114
      0.07000000	      3.30046234	     -0.03403004	      1.75586190	     -0.00606332	      0.93767451	      1.26046092	      7.80459446	     -2.78880185	    -12.90385785	    -28.86027483	     15.60298276	      6.52648468	      6.00016956	     -0.94146731	     -6.11001466	    -27.44410304	     16.70521255	     -3.00562319	    -11.64638381	     -2.53982802	     -5.53988474
      0.08000000	      3.25376352	      0.02393554	      1.79549966	     -0.00629633	      0.93771746	      1.26000397	      7.86212000	     -2.87074655	    -12.89040430	    -28.85215628	     15.58108497	      6.50494009	      6.00359202	     -0.84080639	     -6.09186361	    -27.32200840	     16.65197420	     -3.02089063	    -11.56628980	     -2.58137595	     -5.60313378
      0.09000000	      3.21151648	      0.08106985	      1.84543545	     -0.00650520	      0.93777681	      1.25953676	      7.90838190	     -2.94825472	    -12.87415499	    -28.83739220	     15.55926637	      6.47732139	      5.99736786	     -0.73923381	     -6.06198868	    -27.19295162	     16.59608987	     -3.04023560	    -11.48865649	     -2.62049389	     -5.67727899
      0.10000000	      3.16916435	      0.13705337	      1.89969137	     -0.00670678	      0.93784997	      1.25906354	      7.94875367	     -3.02300297	    -12.85929308	    -28.81240244	     15.53986190	      6.44612747	      5.98330914	     -0.63593540	     -6.02377277	    -27.04750604	     16.53723312	     -3.06496380	    -11.41460198	     -2.65580125	     -5.76594157
      0.11000000	      3.12972642	      0.19230039	      1.96248359	     -0.00688039	      0.93793689	      1.25859742	      7.98038365	     -3.09413022	    -12.84376040	    -28.78345051	     15.52359229	      6.41545648	      5.96062079	     -0.53249438	     -5.97444872	    -26.89450724	     16.47575089	     -3.09568232	    -11.34008452	     -2.69239145	     -5.86260383
      0.12000000	      3.09304062	      0.24875227	      2.03094262	     -0.00702259	      0.93803102	      1.25813046	      8.01050882	     -3.17226314	    -12.85151096	    -28.76732045	     15.52167647	      6.38595066	      5.92541056	     -0.42555551	     -5.91643919	    -26.72707532	     16.40450104	     -3.14364377	    -11.26432043	     -2.72961410	     -5.96712071
      0.13000000	      3.05264319	      0.29362526	      2.09546880	     -0.00716179	      0.93813603	      1.25770767	      8.02623394	     -3.22359270	    -12.82020733	    -28.71069963	     15.51078490	      6.37693404	      5.89640818	     -0.33425197	     -5.86198247	    -26.56491296	     16.35480835	     -3.17740253	    -11.18638054	     -2.75849732	     -6.07088810
      0.14000000	      3.01067646	      0.34165835	      2.16292692	     -0.00727224	      0.93824442	      1.25729431	      8.04408840	     -3.28491355	    -12.81570985	    -28.66356098	     15.51132101	      6.38328437	      5.85901639	     -0.23785590	     -5.80158984	    -26.38744814	     16.29314111	     -3.21791840	    -11.10233782	     -2.79111542	     -6.17595638
      0.15000000	      2.96716525	      0.38845328	      2.23016715	     -0.00735996	      0.93835608	      1.25690265	      8.06155805	     -3.34710199	    -12.82132047	    -28.61841677	     15.52511894	      6.41148188	      5.81753911	     -0.14268478	     -5.73735194	    -26.20229218	     16.23033470	     -3.26428207	    -11.01332680	     -2.82455787	     -6.27984672
      0.16000000	      2.92032653	      0.43052023	      2.29385249	     -0.00742445	      0.93846780	      1.25654520	      8.07749079	     -3.40420923	    -12.83124713	    -28.56703344	     15.54727725	      6.46073544	      5.77480354	     -0.05584222	     -5.67957896	    -26.01149434	     16.17244264	     -3.30967238	    -10.91635425	     -2.85482791	     -6.37752729
